<svg xmlns="http://www.w3.org/2000/svg" viewBox="0 0 500 500" width="500" height="500">
  <g transform="translate(250, 250)">
    <path d="M -180,60 C -195,-70 -80,-190 35,-180 C 145,-170 195,-40 155,70 C 110,180 -25,190 -115,145 C -150,125 -175,95 -180,60" 
          fill="none" stroke="#5E765E" stroke-width="11" stroke-linecap="round" stroke-linejoin="round" />
    <path d="M -135,70 C -115,60 -90,-25 -65,-60 C -45,-85 -25,-80 -20,-25 C -15,15 -10,40 -5,55 C 5,15 18,-45 35,-60 C 50,-75 65,-55 70,-20 C 75,18 78,48 82,62 C 88,32 108,-30 135,-35 C 158,-40 168,-15 155,15 C 135,48 105,42 130,52 C 150,60 185,55 205,40" 
          fill="none" stroke="#5E765E" stroke-width="13" stroke-linecap="round" stroke-linejoin="round" />
  </g>
</svg>